<svg width="24" height="24" viewBox="0 0 24 24" fill="none" xmlns="http://www.w3.org/2000/svg">
    <path fill-rule="evenodd" clip-rule="evenodd" d="M15.8469 6.86107C14.6607 4.49126 12.2362 2.99612 9.58608 3.00001C6.54273 2.99885 3.84765 4.96503 2.91965 7.86345C1.99166 10.7619 3.0436 13.9277 5.52168 15.6944C7.99977 17.4611 11.3356 17.4233 13.7731 15.601L19.8791 21.707L21.2931 20.293L15.1861 14.187C16.7773 12.0677 17.0332 9.23088 15.8469 6.86107ZM14.5861 10C14.5861 12.7614 12.3475 15 9.58608 15C8.26 15 6.98823 14.4732 6.05055 13.5355C5.11287 12.5979 4.58608 11.3261 4.58608 10C4.58608 7.23858 6.82466 5.00001 9.58608 5.00001C12.3475 5.00001 14.5861 7.23858 14.5861 10Z" fill="white" fill-opacity="0.75"/>
</svg>
